HIERARCHY
ROOT Hips
{
    OFFSET   0.000000   0.000000   0.000000
    CHANNELS 6 Xposition Yposition Zposition Zrotation Xrotation Yrotation
    JOINT Chest
    {
        OFFSET   0.000000   8.007230   0.000000
        CHANNELS 3 Zrotation Xrotation Yrotation
        JOINT Chest2
        {
            OFFSET   0.000000  22.077100   0.000000
            CHANNELS 3 Zrotation Xrotation Yrotation
            JOINT Neck
            {
                OFFSET   0.000000  23.254700   0.000000
                CHANNELS 3 Zrotation Xrotation Yrotation
                JOINT Head
                {
                    OFFSET   0.000010  14.370000   1.956610
                    CHANNELS 3 Zrotation Xrotation Yrotation
                    End Site
                    {
                        OFFSET   0.000000  19.566000   0.000000
                    }
                }
            }
            JOINT LeftCollar
            {
                OFFSET   3.911900  19.017000  -0.467063
                CHANNELS 3 Zrotation Xrotation Yrotation
                JOINT LeftShoulder
                {
                    OFFSET  10.383700   0.000000   0.000000
                    CHANNELS 3 Zrotation Xrotation Yrotation
                    JOINT LeftElbow
                    {
                        OFFSET  26.662100   0.001671   0.000522
                        CHANNELS 3 Zrotation Xrotation Yrotation
                        JOINT LeftWrist
                        {
                            OFFSET  28.869000   0.000037  -0.000114
                            CHANNELS 3 Zrotation Xrotation Yrotation
                            JOINT LeftFinger0
                            {
                                OFFSET   2.044650  -2.323450   3.252850
                                CHANNELS 3 Zrotation Xrotation Yrotation
                                JOINT LeftFinger01
                                {
                                    OFFSET   3.088140   0.000000   0.000000
                                    CHANNELS 3 Zrotation Xrotation Yrotation
                                    JOINT LeftFinger02
                                    {
                                        OFFSET   2.639460   0.000000   0.000000
                                        CHANNELS 3 Zrotation Xrotation Yrotation
                                        End Site
                                        {
                                            OFFSET   2.582190   0.000000   0.000000
                                        }
                                    }
                                }
                            }
                            JOINT LeftFinger1
                            {
                                OFFSET   8.364480   0.000000   3.252850
                                CHANNELS 3 Zrotation Xrotation Yrotation
                                JOINT LeftFinger11
                                {
                                    OFFSET   4.646930   0.000000   0.000000
                                    CHANNELS 3 Zrotation Xrotation Yrotation
                                    JOINT LeftFinger12
                                    {
                                        OFFSET   2.323470   0.000000   0.000000
                                        CHANNELS 3 Zrotation Xrotation Yrotation
                                        End Site
                                        {
                                            OFFSET   2.273050   0.000000   0.000000
                                        }
                                    }
                                }
                            }
                            JOINT LeftFinger2
                            {
                                OFFSET   8.364490   0.000016   1.078090
                                CHANNELS 3 Zrotation Xrotation Yrotation
                                JOINT LeftFinger21
                                {
                                    OFFSET   5.111620   0.000000   0.000000
                                    CHANNELS 3 Zrotation Xrotation Yrotation
                                    JOINT LeftFinger22
                                    {
                                        OFFSET   2.788150   0.000013   0.000000
                                        CHANNELS 3 Zrotation Xrotation Yrotation
                                        End Site
                                        {
                                            OFFSET   2.727660   0.000000   0.000000
                                        }
                                    }
                                }
                            }
                            JOINT LeftFinger3
                            {
                                OFFSET   7.899780   0.000016  -1.078090
                                CHANNELS 3 Zrotation Xrotation Yrotation
                                JOINT LeftFinger31
                                {
                                    OFFSET   4.646930   0.000000   0.000000
                                    CHANNELS 3 Zrotation Xrotation Yrotation
                                    JOINT LeftFinger32
                                    {
                                        OFFSET   2.323470   0.000000   0.000000
                                        CHANNELS 3 Zrotation Xrotation Yrotation
                                        End Site
                                        {
                                            OFFSET   2.273050   0.000000   0.000000
                                        }
                                    }
                                }
                            }
                            JOINT LeftFinger4
                            {
                                OFFSET   7.435080   0.000000  -3.252850
                                CHANNELS 3 Zrotation Xrotation Yrotation
                                JOINT LeftFinger41
                                {
                                    OFFSET   3.717550   0.000000   0.000000
                                    CHANNELS 3 Zrotation Xrotation Yrotation
                                    JOINT LeftFinger42
                                    {
                                        OFFSET   1.858760   0.000000   0.000000
                                        CHANNELS 3 Zrotation Xrotation Yrotation
                                        End Site
                                        {
                                            OFFSET   1.818440   0.000000   0.000000
                                        }
                                    }
                                }
                            }
                        }
                    }
                }
            }
            JOINT RightCollar
            {
                OFFSET  -3.911900  19.017000  -0.467064
                CHANNELS 3 Zrotation Xrotation Yrotation
                JOINT RightShoulder
                {
                    OFFSET -10.383700   0.000000   0.000000
                    CHANNELS 3 Zrotation Xrotation Yrotation
                    JOINT RightElbow
                    {
                        OFFSET -26.662100   0.001633   0.000260
                        CHANNELS 3 Zrotation Xrotation Yrotation
                        JOINT RightWrist
                        {
                            OFFSET -28.869000  -0.000045  -0.000080
                            CHANNELS 3 Zrotation Xrotation Yrotation
                            JOINT RightFinger0
                            {
                                OFFSET  -2.044660  -2.323490   3.252850
                                CHANNELS 3 Zrotation Xrotation Yrotation
                                JOINT RightFinger01
                                {
                                    OFFSET  -3.088140   0.000000   0.000000
                                    CHANNELS 3 Zrotation Xrotation Yrotation
                                    JOINT RightFinger02
                                    {
                                        OFFSET  -2.639450   0.000000   0.000000
                                        CHANNELS 3 Zrotation Xrotation Yrotation
                                        End Site
                                        {
                                            OFFSET  -2.582190   0.000000   0.000000
                                        }
                                    }
                                }
                            }
                            JOINT RightFinger1
                            {
                                OFFSET  -8.364480   0.000000   3.252850
                                CHANNELS 3 Zrotation Xrotation Yrotation
                                JOINT RightFinger11
                                {
                                    OFFSET  -4.646920   0.000000   0.000000
                                    CHANNELS 3 Zrotation Xrotation Yrotation
                                    JOINT RightFinger12
                                    {
                                        OFFSET  -2.323470   0.000000   0.000000
                                        CHANNELS 3 Zrotation Xrotation Yrotation
                                        End Site
                                        {
                                            OFFSET  -2.273050   0.000000   0.000000
                                        }
                                    }
                                }
                            }
                            JOINT RightFinger2
                            {
                                OFFSET  -8.364480   0.000000   1.078090
                                CHANNELS 3 Zrotation Xrotation Yrotation
                                JOINT RightFinger21
                                {
                                    OFFSET  -5.111610   0.000000   0.000000
                                    CHANNELS 3 Zrotation Xrotation Yrotation
                                    JOINT RightFinger22
                                    {
                                        OFFSET  -2.788160   0.000000   0.000000
                                        CHANNELS 3 Zrotation Xrotation Yrotation
                                        End Site
                                        {
                                            OFFSET  -2.727660   0.000000   0.000000
                                        }
                                    }
                                }
                            }
                            JOINT RightFinger3
                            {
                                OFFSET  -7.899780   0.000000  -1.078090
                                CHANNELS 3 Zrotation Xrotation Yrotation
                                JOINT RightFinger31
                                {
                                    OFFSET  -4.646930   0.000000   0.000000
                                    CHANNELS 3 Zrotation Xrotation Yrotation
                                    JOINT RightFinger32
                                    {
                                        OFFSET  -2.323470   0.000000   0.000000
                                        CHANNELS 3 Zrotation Xrotation Yrotation
                                        End Site
                                        {
                                            OFFSET  -2.273050   0.000000   0.000000
                                        }
                                    }
                                }
                            }
                            JOINT RightFinger4
                            {
                                OFFSET  -7.435090   0.000000  -3.252850
                                CHANNELS 3 Zrotation Xrotation Yrotation
                                JOINT RightFinger41
                                {
                                    OFFSET  -3.717550   0.000000   0.000000
                                    CHANNELS 3 Zrotation Xrotation Yrotation
                                    JOINT RightFinger42
                                    {
                                        OFFSET  -1.858760   0.000000   0.000000
                                        CHANNELS 3 Zrotation Xrotation Yrotation
                                        End Site
                                        {
                                            OFFSET  -1.818440   0.000000   0.000000
                                        }
                                    }
                                }
                            }
                        }
                    }
                }
            }
        }
    }
    JOINT LeftHip
    {
        OFFSET   9.782990   0.000000   0.000000
        CHANNELS 3 Zrotation Xrotation Yrotation
        JOINT LeftKnee
        {
            OFFSET  -0.000063 -41.789100   0.001657
            CHANNELS 3 Zrotation Xrotation Yrotation
            JOINT LeftAnkle
            {
                OFFSET   0.000078 -41.133200  -0.000113
                CHANNELS 3 Zrotation Xrotation Yrotation
                JOINT LeftToe
                {
                    OFFSET   0.000000  -6.358970  14.674500
                    CHANNELS 3 Zrotation Xrotation Yrotation
                    End Site
                    {
                        OFFSET   0.000000   0.000000   3.913200
                    }
                }
            }
        }
    }
    JOINT RightHip
    {
        OFFSET  -9.782990   0.000000   0.000000
        CHANNELS 3 Zrotation Xrotation Yrotation
        JOINT RightKnee
        {
            OFFSET   0.000053 -41.789200   0.000277
            CHANNELS 3 Zrotation Xrotation Yrotation
            JOINT RightAnkle
            {
                OFFSET   0.000030 -41.133200  -0.000150
                CHANNELS 3 Zrotation Xrotation Yrotation
                JOINT RightToe
                {
                    OFFSET   0.000000  -6.358960  14.674500
                    CHANNELS 3 Zrotation Xrotation Yrotation
                    End Site
                    {
                        OFFSET   0.000000   0.000000   3.913200
                    }
                }
            }
        }
    }
}
MOTION
Frames: 5
Frame Time:   0.016667
 -0.197160  89.624800   0.648233  -2.417480  -4.644930  -2.187820   0.326313   3.305910   0.378121   0.632301   6.613870   0.739197   0.554734  -0.523917   0.004415   0.911562  -1.062250   2.354400  -2.566880  -1.431080   2.227340 -75.184400   9.713700  -0.198511   0.371831  -0.510063 -16.288800  10.097100  -4.570870  -0.015182  38.427800  24.104900 -58.641900 -24.947900   0.000000   0.000332  -7.472360   0.001552   0.000000 -27.941600   4.626040  -8.649200 -23.147800   0.008207   0.001575 -16.203500   0.011866   0.000457 -28.245300  -0.871028   1.610170 -33.835900   0.005685   0.001965 -22.534600  -0.005590   0.001045 -27.650900  -0.854137   1.619070 -29.991300  -0.005135   0.001512 -19.974200  -0.004578   0.001143 -27.505700  -0.840671   1.620850 -41.276300  -0.005457  -0.001032 -27.490000  -0.002548  -0.009948   8.347380   1.966760   4.658250  68.976900   4.857140  -4.503600  -1.066510  -4.964520  10.695000  -7.514150  -5.860480   4.406480 -43.238500  32.071300  71.060800  11.289100  -0.004596   0.000955   0.644531  -0.002147   0.002002  24.988600   6.557160  13.788300  21.102400   0.000596  -0.002370  14.771700   0.000363   0.000405  28.534800   4.041210   7.385460  42.159100   0.000383   0.002178  28.077900   0.001026   0.001154  27.249000   1.693310   3.295550  28.244900  -0.001395   0.005406  18.811100   0.002321   0.003605  33.214100   0.632323   0.965227  49.829100   0.002359   0.001531  33.186200   0.002040   0.002425   2.738950   6.746170   5.717500   0.567440   0.117390   6.682640  -3.197840  -2.965570  -0.858335  -0.000000   0.000000   0.000000   2.067150   5.118290   2.179440  -0.530663   2.522700  -7.505280  -0.251239  -3.917790  -2.652990   0.000000   0.000000   0.000000
 -0.197203  89.624800   0.657041  -2.420060  -4.656410  -2.176560   0.325665   3.310620   0.385605   0.630245   6.623310   0.754204   0.585031  -0.505175   0.004416   0.961310  -1.024330   2.277200  -2.560620  -1.431160   2.216430 -75.181700   9.722340  -0.205805   0.369492  -0.517864 -16.290200  10.096600  -4.577530  -0.020850  38.425400  24.107100 -58.654600 -24.950600   0.000000   0.000317  -7.472310   0.001559   0.000000 -27.948900   4.630140  -8.649220 -23.153800   0.008204   0.001572 -16.207700   0.011866   0.000460 -28.245300  -0.870977   1.610210 -33.844200   0.005688   0.001964 -22.540200  -0.005589   0.001046 -27.650900  -0.854086   1.619110 -30.000800  -0.005137   0.001513 -19.980600  -0.004577   0.001143 -27.510900  -0.840670   1.620910 -41.284200  -0.005456  -0.001031 -27.495200  -0.002548  -0.009948   8.357780   1.939420   4.647940  68.972200   4.880110  -4.532670  -1.052850  -4.978310  10.695200  -7.488540  -5.846320   4.406370 -43.236600  32.098100  71.097800  11.306500  -0.004599   0.000997   0.652904  -0.002152   0.001999  24.988100   6.557360  13.784300  21.098800   0.000592  -0.002370  14.769100   0.000362   0.000404  28.536800   4.033330   7.370980  42.154800   0.000383   0.002178  28.075100   0.001021   0.001155  27.248000   1.693150   3.287790  28.243800  -0.001394   0.005404  18.810400   0.002319   0.003604  33.212500   0.633581   0.967367  49.826800   0.002357   0.001527  33.184700   0.002040   0.002425   2.742240   6.766900   5.717810   0.563970   0.109361   6.682860  -3.198160  -2.965110  -0.871119   0.000000   0.000000   0.000000   2.070830   5.135870   2.173150  -0.530534   2.524470  -7.504410  -0.252013  -3.924000  -2.657480  -0.000000   0.000000   0.000000
 -0.197312  89.624800   0.670946  -2.425630  -4.678020  -2.160560   0.323520   3.321010   0.399115   0.625404   6.644150   0.781371   0.642076  -0.477504   0.004421   1.055080  -0.968283   2.117280  -2.551040  -1.431240   2.199260 -75.172900   9.738110  -0.222284   0.365760  -0.530219 -16.297700  10.095900  -4.588230  -0.030081  38.420600  24.111300 -58.675400 -24.956600   0.000000   0.000302  -7.472210   0.001567  -0.000000 -27.962600   4.636280  -8.649250 -23.165200   0.008202   0.001569 -16.215600   0.011867   0.000467 -28.245300  -0.870882   1.610250 -33.862800   0.005696   0.001963 -22.552600  -0.005589   0.001046 -27.650900  -0.853992   1.619150 -30.020500  -0.005140   0.001515 -19.993700  -0.004576   0.001144 -27.522800  -0.840669   1.620980 -41.302100  -0.005456  -0.001029 -27.507200  -0.002549  -0.009948   8.377520   1.892840   4.637580  68.961500   4.922820  -4.580200  -1.030550  -4.993800  10.695500  -7.443020  -5.815490   4.406140 -43.259500  32.135700  71.146300  11.323900  -0.004609   0.001040   0.661974  -0.002166   0.001994  24.981600   6.557560  13.780200  21.088200   0.000588  -0.002371  14.761700   0.000362   0.000402  28.538700   4.025450   7.356490  42.133900   0.000380   0.002178  28.061100   0.001007   0.001155  27.244300   1.692990   3.280030  28.236300  -0.001392   0.005399  18.805400   0.002313   0.003601  33.201800   0.637244   0.973614  49.810900   0.002352   0.001519  33.174000   0.002041   0.002424   2.748630   6.799960   5.718270   0.558820   0.101332   6.683080  -3.198850  -2.964650  -0.891210  -0.000000   0.000000   0.000000   2.078130   5.166320   2.163060  -0.530685   2.528830  -7.498530  -0.253424  -3.934440  -2.668350  -0.000000   0.000000   0.000000
 -0.197495  89.624700   0.680564  -2.432800  -4.700860  -2.153150   0.318651   3.334840   0.412382   0.615081   6.671870   0.808208   0.701615  -0.462928   0.004440   1.152900  -0.938630   1.924620  -2.545290  -1.427850   2.187480 -75.156600   9.753720  -0.244866   0.364431  -0.538745 -16.314100  10.094300  -4.596520  -0.037408  38.413900  24.114400 -58.693100 -24.967400   0.000000   0.000305  -7.472080   0.001559  -0.000000 -27.977600   4.639940  -8.649280 -23.177800   0.008208   0.001570 -16.224400   0.011869   0.000478 -28.245600  -0.870755   1.609830 -33.890600   0.005706   0.001964 -22.571200  -0.005589   0.001046 -27.651000  -0.853870   1.618720 -30.047200  -0.005140   0.001514 -20.011400  -0.004576   0.001145 -27.541100  -0.843253   1.620390 -41.329600  -0.005456  -0.001026 -27.525500  -0.002550  -0.009948   8.399240   1.853750   4.642600  68.948100   4.968720  -4.616360  -1.012300  -4.995820  10.692500  -7.399080  -5.772980   4.408060 -43.287900  32.151300  71.157300  11.318800  -0.004625   0.001038   0.662702  -0.002187   0.001988  24.958700   6.556720  13.785800  21.068800   0.000590  -0.002377  14.748100   0.000362   0.000400  28.538500   4.025730   7.357060  42.083000   0.000375   0.002178  28.027200   0.000986   0.001153  27.236500   1.693420   3.283250  28.204500  -0.001392   0.005391  18.784200   0.002306   0.003596  33.170600   0.644049   0.985238  49.764200   0.002344   0.001506  33.142900   0.002039   0.002424   2.755890   6.819840   5.718490   0.555293   0.119287   6.682620  -3.200700  -2.978880  -0.905739   0.000000   0.000000   0.000000   2.086500   5.194060   2.155300  -0.535882   2.534540  -7.483370  -0.253300  -3.942830  -2.685220   0.000000   0.000000   0.000000
 -0.197696  89.624700   0.689017  -2.441430  -4.726030  -2.149900   0.311835   3.351430   0.426323   0.600184   6.705090   0.836484   0.768717  -0.452478   0.004468   1.263140  -0.917289   1.692710  -2.540740  -1.422170   2.177170 -75.136900   9.770770  -0.271985   0.363257  -0.546500 -16.336900  10.092900  -4.603150  -0.043696  38.408500  24.120200 -58.706500 -24.974900   0.000000   0.000312  -7.471970   0.001546   0.000000 -27.992200   4.642300  -8.649300 -23.190000   0.008217   0.001571 -16.233000   0.011870   0.000492 -28.246100  -0.870672   1.609410 -33.918100   0.005719   0.001965 -22.589500  -0.005589   0.001046 -27.651000  -0.853790   1.618290 -30.072200  -0.005141   0.001512 -20.028100  -0.004577   0.001145 -27.559200  -0.846979   1.619790 -41.356700  -0.005457  -0.001021 -27.543600  -0.002551  -0.009947   8.422450   1.812910   4.653160  68.928900   5.015120  -4.651360  -0.994681  -4.996200  10.686500  -7.354160  -5.727050   4.413300 -43.294900  32.159100  71.154700  11.313700  -0.004647   0.001031   0.662901  -0.002213   0.001984  24.929100   6.555700  13.798000  21.046400   0.000594  -0.002389  14.732500   0.000363   0.000398  28.537900   4.027690   7.361010  42.025600   0.000368   0.002176  27.989100   0.000959   0.001149  27.227700   1.696430   3.292850  28.163400  -0.001391   0.005381  18.756800   0.002294   0.003590  33.133700   0.651559   0.998082  49.709000   0.002334   0.001490  33.106200   0.002037   0.002424   2.763720   6.844780   5.718780   0.551681   0.137241   6.681920  -3.202380  -2.993110  -0.916817  -0.000000   0.000000  -0.000000   2.096080   5.221280   2.149090  -0.544461   2.543380  -7.465190  -0.251435  -3.951600  -2.704120  -0.000000   0.000000  -0.000000
